<svg xmlns="http://www.w3.org/2000/svg" viewBox="0 0 30 30"><path d="M26 20 24 5H7L2 20l8.2 9.2a14.8 14.8 0 0 0 9.6 0Z" fill="#fff"/><path d="M15 0a15 15 0 0 0-4.74 29.23c.75.14 1.02-.32 1.02-.72l-.02-2.55c-4.17.9-5.05-2.01-5.05-2.01a3.97 3.97 0 0 0-1.67-2.2c-1.36-.93.1-.9.1-.9a3.15 3.15 0 0 1 2.3 1.54 3.2 3.2 0 0 0 4.37 1.24 3.2 3.2 0 0 1 .95-2c-3.33-.38-6.83-1.67-6.83-7.41a5.8 5.8 0 0 1 1.54-4.03 5.4 5.4 0 0 1 .15-3.97s1.26-.4 4.13 1.54a14.22 14.22 0 0 1 7.5 0c2.87-1.94 4.13-1.54 4.13-1.54a5.39 5.39 0 0 1 .15 3.97 5.79 5.79 0 0 1 1.54 4.03c0 5.76-3.5 7.03-6.85 7.4a3.58 3.58 0 0 1 1.02 2.78l-.02 4.11c0 .4.27.87 1.03.72A15 15 0 0 0 15 0Z" fill="#1a1414" fill-rule="evenodd"/></svg>
