<svg xmlns="http://www.w3.org/2000/svg" viewBox="0 0 30 30"><defs><linearGradient id="a" x1=".02" y1="-2.1" x2="29.98" y2="-3.68" gradientTransform="translate(0 17.89)" gradientUnits="userSpaceOnUse"><stop offset="0" stop-color="#ffd522"/><stop offset=".5" stop-color="#f1000b"/><stop offset="1" stop-color="#b900b3"/></linearGradient></defs><circle cx="15" cy="15" r="15" fill="url(#a)"/><g fill="#fff"><path d="M15 6.8c2.67 0 2.99.01 4.04.06a5.53 5.53 0 0 1 1.86.34 3.31 3.31 0 0 1 1.9 1.9 5.53 5.53 0 0 1 .34 1.86c.05 1.05.06 1.37.06 4.04s-.01 2.99-.06 4.04a5.53 5.53 0 0 1-.34 1.86 3.31 3.31 0 0 1-1.9 1.9 5.53 5.53 0 0 1-1.86.34c-1.05.05-1.37.06-4.04.06s-2.99-.01-4.04-.06a5.53 5.53 0 0 1-1.86-.34 3.31 3.31 0 0 1-1.9-1.9 5.53 5.53 0 0 1-.34-1.86C6.81 18 6.8 17.67 6.8 15s.01-2.99.06-4.04A5.53 5.53 0 0 1 7.2 9.1a3.31 3.31 0 0 1 1.9-1.9 5.53 5.53 0 0 1 1.86-.34C12 6.81 12.33 6.8 15 6.8M15 5c-2.72 0-3.06.01-4.12.06a7.34 7.34 0 0 0-2.43.47 5.11 5.11 0 0 0-2.92 2.92 7.34 7.34 0 0 0-.47 2.43C5.01 11.94 5 12.28 5 15s.01 3.06.06 4.12a7.34 7.34 0 0 0 .47 2.43 5.11 5.11 0 0 0 2.92 2.93 7.34 7.34 0 0 0 2.43.46c1.06.05 1.4.06 4.12.06s3.06-.01 4.12-.06a7.34 7.34 0 0 0 2.43-.46 5.11 5.11 0 0 0 2.93-2.93 7.34 7.34 0 0 0 .46-2.43c.05-1.06.06-1.4.06-4.12s-.01-3.06-.06-4.12a7.34 7.34 0 0 0-.46-2.43 5.11 5.11 0 0 0-2.93-2.92 7.34 7.34 0 0 0-2.43-.47C18.06 5.01 17.72 5 15 5Z"/><path d="M15 9.86A5.14 5.14 0 1 0 20.14 15 5.14 5.14 0 0 0 15 9.86Zm0 8.47A3.33 3.33 0 1 1 18.33 15 3.33 3.33 0 0 1 15 18.33Z"/><circle cx="20.34" cy="9.66" r="1.2"/></g></svg>
