<svg xmlns="http://www.w3.org/2000/svg" viewBox="0 0 30 30"><circle cx="15" cy="15" r="15" fill="#1d9bf0"/><path d="M12.255 22.912a10.219 10.219 0 0 0 10.289-10.288q0-.235-.01-.468a7.357 7.357 0 0 0 1.804-1.872 7.218 7.218 0 0 1-2.077.569 3.628 3.628 0 0 0 1.59-2 7.247 7.247 0 0 1-2.296.877 3.62 3.62 0 0 0-6.162 3.298A10.266 10.266 0 0 1 7.939 9.25a3.619 3.619 0 0 0 1.12 4.828 3.59 3.59 0 0 1-1.638-.453v.046a3.618 3.618 0 0 0 2.9 3.545 3.61 3.61 0 0 1-1.633.062 3.62 3.62 0 0 0 3.378 2.512 7.256 7.256 0 0 1-4.49 1.548 7.362 7.362 0 0 1-.863-.05 10.237 10.237 0 0 0 5.542 1.624" fill="#fff"/></svg>
