<svg xmlns="http://www.w3.org/2000/svg" viewBox="0 0 30 30"><circle cx="15" cy="15" r="14.5" fill="#fff"/><path fill="#eee" d="M15 1c7.72 0 14 6.28 14 14s-6.28 14-14 14S1 22.72 1 15 7.28 1 15 1m0-1a15 15 0 1 0 0 30 15 15 0 0 0 0-30Z"/><path fill="#3ea8ff" d="M7.02 23h3.4c.17 0 .33-.1.43-.24l9.32-15.32c.12-.2-.02-.44-.26-.44h-3.2c-.16 0-.3.08-.38.22l-9.47 15.5c-.06.12.02.28.16.28ZM18.7 22.76l4.4-7.07a.32.32 0 0 0-.28-.5h-3.18a.35.35 0 0 0-.3.16l-4.53 7.23c-.12.18.02.42.24.42h3.25c.16 0 .32-.08.4-.24Z"/></svg>