<svg xmlns="http://www.w3.org/2000/svg" viewBox="0 0 32 32"><path fill="#00005b" d="M0 0h32v32H0z"/><path fill="#99f" d="M6.6 23.1V9c0-.1 0-.2.1-.2h4.2c1.1 0 2.1.1 2.8.4a4.35 4.35 0 0 1 2.8 2.7 5.66 5.66 0 0 1-.5 4.7c-.5.8-1.3 1.3-2.2 1.7-.9.3-2 .5-3.1.5H9.4V23c0 .1-.1.2-.2.2h.1-2.6c-.1 0-.1 0-.1-.1zm2.9-11.6v4.6h1.2c.5 0 1.1-.1 1.6-.2.4-.1.8-.4 1.1-.7.3-.3.4-.8.4-1.4 0-.4-.1-.8-.3-1.2-.2-.4-.6-.6-1-.8-.5-.2-1.1-.3-1.6-.3H9.5zM18.9 12.3h2.4c.1 0 .2.1.3.2 0 .1.1.2.1.3 0 .1.1.3.1.4v.5c.4-.5.9-.9 1.5-1.2.6-.4 1.4-.5 2.1-.5.1 0 .2.1.2.2V15c0 .1-.1.2-.2.2-.5 0-1 0-1.5.1-.4.1-.8.2-1.1.4-.3.1-.5.3-.7.5v7c0 .1-.1.2-.2.2H19c-.1 0-.2-.1-.2-.2v-9.9c0-.3 0-.6-.1-.9 0 0 0-.1.2-.1-.1 0-.1 0 0 0z"/></svg>