<svg xmlns="http://www.w3.org/2000/svg" viewBox="0 0 32 32"><path fill="#49021f" d="M0 0h32v32H0z"/><g fill="#f36"><path d="M11.51 8.37v14.08c0 .16-.06.22-.19.22H8.64c-.12 0-.18-.06-.18-.22V8.37c0-.12.07-.18.2-.18h2.66a.15.15 0 0 1 .18.14.05.05 0 0 1 .01.04ZM19.42 22.84a6.8 6.8 0 0 1-2.94-.62 4.77 4.77 0 0 1-2.07-1.86 5.92 5.92 0 0 1-.75-3.12 5.62 5.62 0 0 1 .75-2.88 5.68 5.68 0 0 1 2.18-2.12 7 7 0 0 1 3.46-.8 2.44 2.44 0 0 1 .29.02l.42.03V7.17c0-.1.04-.15.14-.15h2.77a.12.12 0 0 1 .14.1v13.04l.03.82.05.8a.22.22 0 0 1-.14.21 10.44 10.44 0 0 1-2.23.66 11.94 11.94 0 0 1-2.1.19Zm1.34-2.74V14.1a3.5 3.5 0 0 0-.37-.07l-.45-.03a3.37 3.37 0 0 0-1.55.36 3.07 3.07 0 0 0-1.16 1 3.03 3.03 0 0 0-.45 1.74 3.81 3.81 0 0 0 .23 1.41 2.67 2.67 0 0 0 .62.97 2.36 2.36 0 0 0 .93.55 3.58 3.58 0 0 0 1.13.18c.2 0 .4-.02.58-.03a1.16 1.16 0 0 0 .49-.07Z"/></g></svg>
