<svg xmlns="http://www.w3.org/2000/svg" viewBox="0 0 32 32"><path fill="#001e36" d="M0 0h32v32H0z"/><g fill="#31a8ff"><path d="M6.97 22.44V8.37c0-.1.05-.15.14-.15l.77-.01c.33-.02.67-.02 1.04-.03l1.19-.03 1.24-.01a8.04 8.04 0 0 1 2.82.42A4.88 4.88 0 0 1 16 9.68a4.35 4.35 0 0 1 1 1.56 5.23 5.23 0 0 1 .31 1.78 4.89 4.89 0 0 1-.82 2.91 4.68 4.68 0 0 1-2.2 1.67 8.86 8.86 0 0 1-3.08.47c-.32 0-.54 0-.68-.02s-.33-.01-.59-.01v4.39a.17.17 0 0 1-.15.19H7.14c-.11 0-.17-.06-.17-.18Zm2.99-11.58v4.6l.53.02h.72a5.1 5.1 0 0 0 1.58-.25 2.35 2.35 0 0 0 1.12-.72 2.11 2.11 0 0 0 .42-1.4 2.25 2.25 0 0 0-.31-1.23 1.98 1.98 0 0 0-.96-.78 4.01 4.01 0 0 0-1.61-.27l-.93.01a3.13 3.13 0 0 0-.56.02ZM25.85 14.62a4.84 4.84 0 0 0-1.32-.47 7.2 7.2 0 0 0-1.53-.17 2.75 2.75 0 0 0-.82.1.7.7 0 0 0-.42.27.72.72 0 0 0-.11.36.6.6 0 0 0 .13.36 1.54 1.54 0 0 0 .47.37c.31.16.64.31.97.45a9.9 9.9 0 0 1 2.1 1 3.18 3.18 0 0 1 1.09 1.13 2.95 2.95 0 0 1 .31 1.41 3.18 3.18 0 0 1-.53 1.82 3.43 3.43 0 0 1-1.53 1.22 6.27 6.27 0 0 1-2.48.44 9.42 9.42 0 0 1-1.86-.18 5.52 5.52 0 0 1-1.4-.44.27.27 0 0 1-.14-.26v-2.38a.15.15 0 0 1 .05-.12.1.1 0 0 1 .12.01 5.85 5.85 0 0 0 1.7.67 6.37 6.37 0 0 0 1.61.2 2.61 2.61 0 0 0 1.14-.18.64.64 0 0 0 .37-.58.72.72 0 0 0-.33-.55 5.8 5.8 0 0 0-1.34-.64 8.37 8.37 0 0 1-1.94-.98 3.54 3.54 0 0 1-1.04-1.17 2.93 2.93 0 0 1-.32-1.39 3.22 3.22 0 0 1 .47-1.66 3.37 3.37 0 0 1 1.43-1.25 5.3 5.3 0 0 1 2.42-.48 11.79 11.79 0 0 1 1.7.12 4.81 4.81 0 0 1 1.18.32.24.24 0 0 1 .13.12.69.69 0 0 1 .03.16v2.23a.17.17 0 0 1-.07.14.36.36 0 0 1-.24 0Z"/></g></svg>
