<svg xmlns="http://www.w3.org/2000/svg" viewBox="0 0 32 32"><path fill="#300" d="M0 0h32v32H0z"/><g fill="#ff9a00"><path d="M15.45 19.15h-5.08l-1.04 3.2a.24.24 0 0 1-.26.2H6.5c-.15 0-.2-.08-.15-.25l4.4-12.67.14-.45a4.78 4.78 0 0 0 .08-.9.14.14 0 0 1 .1-.14h3.55c.1 0 .16.04.18.1l4.99 14.1c.04.14 0 .21-.14.21H16.8a.2.2 0 0 1-.22-.15l-1.12-3.25Zm-4.3-2.78h3.48c-.08-.29-.19-.63-.31-.99-.13-.36-.25-.76-.37-1.17l-.4-1.26c-.14-.42-.26-.82-.37-1.22l-.3-1.06h-.03a16.79 16.79 0 0 1-.46 1.76l-.63 2.02c-.2.7-.4 1.34-.6 1.92ZM22.84 10.53a1.7 1.7 0 0 1-1.22-.48 1.78 1.78 0 0 1-.46-1.26 1.6 1.6 0 0 1 .49-1.21 1.75 1.75 0 0 1 1.21-.48 1.64 1.64 0 0 1 1.25.48 1.73 1.73 0 0 1 .45 1.21 1.73 1.73 0 0 1-.48 1.26 1.6 1.6 0 0 1-1.24.48ZM21.3 22.4V11.87c0-.14.05-.2.17-.2h2.71c.12 0 .18.08.18.2V22.4c0 .15-.06.22-.18.22h-2.68a.2.2 0 0 1-.2-.22Z"/></g></svg>
