<svg xmlns="http://www.w3.org/2000/svg" viewBox="0 0 32 32"><path fill="#470137" d="M0 0h32v32H0z"/><g fill="#ff61f6"><path d="m16.85 8.41-4.1 6.77 4.37 7.18a.24.24 0 0 1 .03.16c-.01.06-.07.02-.15.03h-3.13c-.22 0-.37-.01-.47-.15-.29-.57-.59-1.13-.87-1.7-.3-.57-.6-1.14-.93-1.73l-.99-1.78h-.03c-.28.59-.6 1.18-.91 1.76l-.93 1.75c-.32.58-.63 1.17-.95 1.73-.05.13-.16.15-.31.15h-3c-.06 0-.1.03-.1-.04a.19.19 0 0 1 .02-.15l4.26-6.98L4.5 8.4c-.04-.06-.05-.11-.02-.14a.16.16 0 0 1 .13-.05h3.1a.8.8 0 0 1 .2.02.39.39 0 0 1 .13.13c.26.58.57 1.17.88 1.76.33.59.64 1.16.98 1.74.33.57.63 1.15.92 1.73h.03a52.98 52.98 0 0 1 1.82-3.48l.91-1.73a.23.23 0 0 1 .09-.13.26.26 0 0 1 .17-.03h2.89a.13.13 0 0 1 .15.1c.01 0-.01.06-.04.09ZM23.17 22.84a6.8 6.8 0 0 1-2.94-.62 4.77 4.77 0 0 1-2.07-1.86 5.92 5.92 0 0 1-.75-3.12 5.62 5.62 0 0 1 .75-2.88 5.68 5.68 0 0 1 2.18-2.12 7 7 0 0 1 3.45-.8 2.44 2.44 0 0 1 .3.02l.42.03V7.17c0-.1.04-.15.13-.15h2.78a.12.12 0 0 1 .14.1v13.04c0 .24 0 .52.02.82l.06.8a.22.22 0 0 1-.14.21 10.44 10.44 0 0 1-2.23.66 12.06 12.06 0 0 1-2.1.19Zm1.34-2.74V14.1a3.5 3.5 0 0 0-.37-.07l-.45-.03a3.37 3.37 0 0 0-1.55.36 3.07 3.07 0 0 0-1.16 1 3.03 3.03 0 0 0-.45 1.74 3.81 3.81 0 0 0 .23 1.41 2.67 2.67 0 0 0 .61.97 2.36 2.36 0 0 0 .93.55 3.58 3.58 0 0 0 1.14.18c.2 0 .4-.02.57-.03a1.2 1.2 0 0 0 .5-.07Z"/></g></svg>
