<svg xmlns="http://www.w3.org/2000/svg" viewBox="0 0 32 32"><path fill="#264de4" d="m25.21 8.11-1.678 18.799L15.989 29l-7.523-2.088L6.79 8.11h18.42z"/><path fill="#2965f1" d="m22.095 25.712 1.434-16.065H16v17.755l6.095-1.69z"/><path fill="#ebebeb" d="m10.633 16.62.207 2.306H16V16.62h-5.367zM16 11.953h-5.782l.209 2.306H16v-2.306zM16 25.009v-2.4l-.01.003-2.568-.693-.164-1.84h-2.315l.323 3.621 4.723 1.311.011-.002z"/><path d="M11.125 3h2.793v1.168h-1.625v1.168h1.625v1.168h-2.793ZM14.477 3h2.793v1.016h-1.625v.203h1.625v2.336h-2.793V5.488h1.625v-.203h-1.625ZM17.828 3h2.793v1.016h-1.625v.203h1.625v2.336h-2.793V5.488h1.625v-.203h-1.625Z"/><path fill="#fff" d="m18.832 18.926-.268 2.991-2.572.694v2.399l4.727-1.31.035-.389.542-6.071.056-.62.417-4.667h-5.777v2.306h3.249l-.209 2.361h-3.04v2.306h2.84z"/></svg>
