<svg xmlns="http://www.w3.org/2000/svg" viewBox="0 0 32 32"><path d="M8.505 3h1.168v1.158h1.076V3h1.168v3.504H10.75V5.336H9.683v1.168H8.505m4.956-2.336h-1.03V3h3.234v1.168h-1.036v2.336H13.46M16.178 3h1.224l.751 1.234L18.905 3h1.224v3.504H18.96V4.767l-.818 1.26-.818-1.26v1.737h-1.147M20.708 3h1.167v2.346h1.656v1.158h-2.824"/><path d="M8.464 26.918 6.788 8.108h18.424l-1.676 18.8L15.985 29" fill="#e44d26"/><path d="M16 27.4V9.652h7.53L22.095 25.7" fill="#f16529"/><path d="M10.21 11.953H16v2.305h-3.26l.213 2.362H16v2.3h-5.16m.102 1.158h2.316l.162 1.843 2.58.69v2.408l-4.733-1.32" fill="#ebebeb"/><path d="M21.769 11.953h-5.78v2.305h5.566m-.208 2.362H15.99v2.305h2.844l-.27 2.996-2.574.69v2.398l4.723-1.31" fill="#fff"/></svg>
