<svg xmlns="http://www.w3.org/2000/svg" viewBox="0 0 32 32"><path d="M12.59 22.1s-1 .59.7.78a14.88 14.88 0 0 0 5.39-.23 9.37 9.37 0 0 0 1.43.7c-5.09 2.18-11.52-.13-7.52-1.24M11.97 19.26s-1.12.83.58 1a21 21 0 0 0 6.95-.33 3.08 3.08 0 0 0 1.07.65c-6.15 1.8-13 .14-8.6-1.32" fill="#5382a1"/><path d="M17.2 14.43a1.9 1.9 0 0 1-.32 2.75s3.18-1.65 1.72-3.7c-1.36-1.93-2.41-2.88 3.26-6.17 0 0-8.9 2.22-4.65 7.12" fill="#f8981d"/><path d="M23.94 24.21s.74.6-.8 1.08c-2.95.89-12.24 1.16-14.82.03-.93-.4.81-.96 1.36-1.08a3.53 3.53 0 0 1 .9-.1c-1.03-.73-6.67 1.43-2.86 2.04 10.37 1.69 18.91-.75 16.22-1.97M13.07 16.31s-4.73 1.12-1.68 1.53a35.5 35.5 0 0 0 6.25-.07c1.96-.16 3.92-.51 3.92-.51a8.3 8.3 0 0 0-1.19.63c-4.8 1.27-14.07.68-11.4-.61a8.94 8.94 0 0 1 4.1-.97M21.54 21.05c4.88-2.54 2.63-4.97 1.05-4.64a3.65 3.65 0 0 0-.56.15.89.89 0 0 1 .42-.32c3.11-1.1 5.5 3.22-1 4.94a.42.42 0 0 0 .1-.13" fill="#5382a1"/><path d="M18.6 2s2.7 2.7-2.56 6.86c-4.22 3.33-.96 5.23 0 7.4-2.47-2.22-4.27-4.18-3.06-6C14.76 7.6 19.69 6.3 18.6 2" fill="#f8981d"/><path d="M13.54 27.92c4.69.3 11.88-.17 12.05-2.38 0 0-.33.84-3.87 1.5a38.5 38.5 0 0 1-11.85.19s.6.5 3.68.69" fill="#5382a1"/></svg>
