<svg xmlns="http://www.w3.org/2000/svg" viewBox="0 0 32 32"><path fill="#f7df1e" d="M0 0h32v32H0z"/><path d="M21.5 25a3.27 3.27 0 0 0 2.96 1.83c1.25 0 2.04-.63 2.04-1.49 0-1.03-.81-1.4-2.19-2l-.75-.32c-2.17-.92-3.6-2.08-3.6-4.53 0-2.25 1.71-3.97 4.4-3.97a4.44 4.44 0 0 1 4.27 2.4l-2.34 1.51a2.04 2.04 0 0 0-1.93-1.29 1.3 1.3 0 0 0-1.44 1.3c0 .9.56 1.26 1.85 1.82l.75.32c2.55 1.1 4 2.21 4 4.72 0 2.71-2.13 4.2-4.99 4.2a5.78 5.78 0 0 1-5.48-3.08Zm-10.63.26c.48.84.9 1.55 1.94 1.55.99 0 1.61-.39 1.61-1.9V14.7h3v10.27c0 3.11-1.82 4.53-4.48 4.53a4.67 4.67 0 0 1-4.51-2.75Z"/></svg>
