<svg xmlns="http://www.w3.org/2000/svg" viewBox="0 0 32 32"><path d="M8.14 15.764h-.281c-.113 1.147-.27 2.541-2.25 2.541H4.7c-.529 0-.551-.078-.551-.45v-5.97c0-.383 0-.54 1.057-.54h.37v-.338c-.404.034-1.416.034-1.877.034-.439 0-1.316 0-1.698-.034v.338h.259c.866 0 .888.123.888.528v5.904c0 .405-.022.528-.888.528H2v.349h5.836Z"/><path d="M7.949 10.996c-.045-.135-.068-.18-.214-.18s-.18.045-.225.18L5.7 15.584c-.08.191-.214.54-.911.54v.28h1.743v-.28c-.349 0-.562-.158-.562-.383a.496.496 0 0 1 .033-.157l.383-.967h2.226l.45 1.147a.38.38 0 0 1 .045.135c0 .225-.427.225-.641.225v.28h2.215v-.28h-.157c-.529 0-.585-.079-.664-.304L7.95 10.996Zm-.45.798 1 2.542H6.499Z"/><path d="M16.956 11.075h-6.848l-.203 2.519h.27c.158-1.81.326-2.182 2.024-2.182a4.717 4.717 0 0 1 .607.023c.237.045.237.168.237.427v5.903c0 .383 0 .54-1.181.54h-.45v.349c.461-.034 1.597-.034 2.114-.034s1.676 0 2.137.034v-.349h-.45c-1.18 0-1.18-.157-1.18-.54v-5.903c0-.225 0-.382.201-.427a5.296 5.296 0 0 1 .641-.023c1.687 0 1.856.371 2.013 2.182h.281l-.213-2.52Z"/><path d="M22.983 18.294h-.281c-.281 1.72-.54 2.541-2.463 2.541h-1.484c-.529 0-.551-.078-.551-.45v-2.99h1c1.092 0 1.215.36 1.215 1.315h.281v-2.969h-.28c0 .956-.124 1.305-1.215 1.305h-1.001v-2.688c0-.37.022-.45.551-.45h1.44c1.72 0 2.012.619 2.192 2.182h.281l-.315-2.519h-6.297v.337h.259c.866 0 .888.124.888.529v5.87c0 .405-.022.528-.888.528h-.259v.349h6.455Z"/><path d="m26.368 14.325 1.54-2.25a1.704 1.704 0 0 1 1.62-.73v-.338H26.85v.338c.45.01.698.258.698.517 0 .112-.023.135-.102.258l-1.282 1.89-1.439-2.16a.464.464 0 0 1-.079-.168c0-.135.248-.326.72-.337v-.338c-.382.034-1.203.034-1.63.034-.349 0-1.046-.011-1.462-.034v.338h.213c.619 0 .832.078 1.046.393l2.058 3.115-1.833 2.71a1.69 1.69 0 0 1-1.62.742v.349h2.677v-.349c-.517-.011-.708-.315-.708-.517 0-.101.033-.146.112-.27l1.586-2.35 1.776 2.676a.387.387 0 0 1 .057.124c0 .135-.248.326-.731.337v.349c.393-.034 1.214-.034 1.63-.034.472 0 .99.011 1.462.034v-.349h-.214c-.584 0-.82-.056-1.057-.405l-2.361-3.576Z"/></svg>
