<svg xmlns="http://www.w3.org/2000/svg" viewBox="0 0 32 32"><path d="m14.2 27.18-2.67-.78a.53.53 0 0 1-.36-.65l5.98-20.57a.53.53 0 0 1 .65-.36l2.67.78a.53.53 0 0 1 .36.65l-5.98 20.57a.52.52 0 0 1-.65.36Zm-4.99-4.91 1.9-2.03a.53.53 0 0 0-.03-.75l-3.96-3.5 3.96-3.48a.52.52 0 0 0 .04-.75l-1.9-2.03a.53.53 0 0 0-.75-.02l-6.3 5.9a.52.52 0 0 0 0 .77l6.3 5.91a.52.52 0 0 0 .74-.02Zm14.32.02 6.3-5.9a.52.52 0 0 0 0-.77l-6.3-5.92a.53.53 0 0 0-.74.03l-1.9 2.03a.53.53 0 0 0 .03.75L24.88 16l-3.96 3.49a.52.52 0 0 0-.04.75l1.9 2.03a.53.53 0 0 0 .75.02Z" fill="#5991ff"/></svg>
