<svg xmlns="http://www.w3.org/2000/svg" viewBox="0 0 32 32"><path fill="#777bb3" d="M0 0h32v32H0z"/><path d="M7.722 17.194a2.878 2.878 0 0 0 1.747-.431 2.335 2.335 0 0 0 .756-1.459 1.57 1.57 0 0 0-.14-1.328 1.972 1.972 0 0 0-1.43-.371H7.397l-.697 3.59Zm-4.115 4.422a.196.196 0 0 1-.192-.234l1.849-9.511a.196.196 0 0 1 .192-.158H9.44a3.506 3.506 0 0 1 2.77 1.01 3.157 3.157 0 0 1 .54 2.801 4.328 4.328 0 0 1-1.36 2.437 3.868 3.868 0 0 1-1.451.87 6.573 6.573 0 0 1-1.994.256H6.332l-.46 2.37a.196.196 0 0 1-.193.159Z"/><path d="M7.559 13.8h1.096c.876 0 1.18.193 1.284.307a1.438 1.438 0 0 1 .094 1.16 2.152 2.152 0 0 1-.683 1.34 2.699 2.699 0 0 1-1.628.391h-.785Zm1.881-2.283H5.456a.392.392 0 0 0-.385.317l-1.848 9.511a.391.391 0 0 0 .384.466h2.072a.392.392 0 0 0 .384-.317l.43-2.212h1.452A6.764 6.764 0 0 0 10 19.016a4.064 4.064 0 0 0 1.524-.912 4.524 4.524 0 0 0 1.419-2.543 3.34 3.34 0 0 0-.585-2.967 3.69 3.69 0 0 0-2.918-1.077M6.462 17.39h1.26a3.043 3.043 0 0 0 1.867-.472 2.507 2.507 0 0 0 .828-1.577 1.727 1.727 0 0 0-.187-1.496 2.12 2.12 0 0 0-1.575-.436h-1.42l-.773 3.981m2.978-5.482a3.31 3.31 0 0 1 2.623.944 2.962 2.962 0 0 1 .495 2.635 4.132 4.132 0 0 1-1.3 2.33 3.66 3.66 0 0 1-1.38.827 6.351 6.351 0 0 1-1.933.247H6.17L5.68 21.42H3.607l1.849-9.512H9.44" fill="#fff"/><path d="M17.501 19.087a.196.196 0 0 1-.192-.233l.818-4.209c.078-.4.059-.687-.054-.809-.069-.074-.276-.198-.888-.198h-1.482l-1.028 5.29a.196.196 0 0 1-.192.159h-2.056a.196.196 0 0 1-.192-.233l1.849-9.512a.196.196 0 0 1 .192-.158h2.056a.196.196 0 0 1 .192.233l-.446 2.296h1.594a3.7 3.7 0 0 1 2.517.654 2.18 2.18 0 0 1 .453 2.135l-.86 4.426a.196.196 0 0 1-.192.159Z"/><path d="M16.332 8.988h-2.056a.392.392 0 0 0-.384.317l-1.849 9.511a.392.392 0 0 0 .384.467h2.056a.392.392 0 0 0 .385-.317l.997-5.133h1.32c.611 0 .74.13.744.137.037.04.086.224.006.638l-.818 4.208a.392.392 0 0 0 .384.467h2.089a.392.392 0 0 0 .384-.317l.86-4.427a2.358 2.358 0 0 0-.513-2.316 3.87 3.87 0 0 0-2.65-.706h-1.356l.401-2.063a.392.392 0 0 0-.384-.466m0 .391-.492 2.53h1.832a3.566 3.566 0 0 1 2.384.602 1.995 1.995 0 0 1 .394 1.954l-.86 4.426H17.5l.818-4.208a1.142 1.142 0 0 0-.103-.98 1.444 1.444 0 0 0-1.031-.261h-1.643l-1.059 5.449h-2.056l1.85-9.512h2.055" fill="#fff"/><path d="M23.895 17.194a2.878 2.878 0 0 0 1.747-.431 2.335 2.335 0 0 0 .755-1.459 1.57 1.57 0 0 0-.14-1.328 1.972 1.972 0 0 0-1.43-.371H23.57l-.697 3.59Zm-4.116 4.422a.196.196 0 0 1-.192-.234l1.849-9.511a.196.196 0 0 1 .192-.159h3.984a3.506 3.506 0 0 1 2.77 1.011 3.157 3.157 0 0 1 .54 2.801 4.329 4.329 0 0 1-1.36 2.437 3.868 3.868 0 0 1-1.451.87 6.573 6.573 0 0 1-1.994.256h-1.613l-.46 2.37a.196.196 0 0 1-.193.159Z"/><path d="M23.73 13.8h1.098c.875 0 1.18.193 1.283.307a1.437 1.437 0 0 1 .094 1.16 2.153 2.153 0 0 1-.683 1.34 2.699 2.699 0 0 1-1.627.391h-.786Zm1.882-2.283h-3.984a.392.392 0 0 0-.384.317l-1.85 9.511a.391.391 0 0 0 .385.466h2.072a.392.392 0 0 0 .385-.317l.43-2.212h1.451a6.764 6.764 0 0 0 2.055-.266 4.064 4.064 0 0 0 1.524-.912 4.524 4.524 0 0 0 1.42-2.543 3.34 3.34 0 0 0-.586-2.967 3.69 3.69 0 0 0-2.918-1.077m-2.978 5.873h1.26a3.043 3.043 0 0 0 1.867-.472 2.507 2.507 0 0 0 .828-1.577 1.727 1.727 0 0 0-.187-1.496 2.12 2.12 0 0 0-1.574-.436h-1.42l-.774 3.981m2.978-5.482a3.31 3.31 0 0 1 2.623.944 2.961 2.961 0 0 1 .496 2.635 4.132 4.132 0 0 1-1.301 2.33 3.66 3.66 0 0 1-1.38.827 6.351 6.351 0 0 1-1.933.247h-1.774l-.492 2.529H19.78l1.849-9.512h3.984" fill="#fff"/></svg>
