<svg xmlns="http://www.w3.org/2000/svg" viewBox="0 0 32 32"><g fill="#61dafb"><path d="M32 16.003c0-2.12-2.655-4.129-6.725-5.374.94-4.149.522-7.45-1.317-8.506a2.857 2.857 0 0 0-1.455-.364V1.75c-1.794 0-4.142 1.279-6.516 3.496-2.374-2.204-4.722-3.47-6.516-3.47v.007a2.908 2.908 0 0 0-1.474.365C6.164 3.206 5.753 6.5 6.699 10.635 2.642 11.887 0 13.89 0 16.003c0 2.12 2.655 4.13 6.725 5.375-.94 4.148-.522 7.449 1.317 8.505a2.868 2.868 0 0 0 1.468.366c1.794 0 4.142-1.279 6.516-3.496 2.374 2.204 4.722 3.47 6.516 3.47a2.908 2.908 0 0 0 1.474-.366c1.833-1.056 2.244-4.35 1.298-8.486C29.358 20.126 32 18.117 32 16.003ZM22.497 3.206v.006a1.51 1.51 0 0 1 .743.17c.887.509 1.272 2.446.972 4.938a20.07 20.07 0 0 1-.333 1.917 31.597 31.597 0 0 0-4.142-.71 31.82 31.82 0 0 0-2.713-3.262c2.123-1.973 4.116-3.055 5.473-3.059ZM10.22 19.343q.46.783.94 1.526a29.438 29.438 0 0 1-2.675-.515c.241-.842.541-1.71.88-2.577.268.522.548 1.044.855 1.566Zm-1.755-7.69a31.665 31.665 0 0 1 2.688-.516 36.054 36.054 0 0 0-1.787 3.112 27.946 27.946 0 0 1-.9-2.596Zm1.664 4.37a34.74 34.74 0 0 1 2.922-5.094 33.944 33.944 0 0 1 5.883-.007q.812 1.164 1.579 2.479c.495.854.945 1.722 1.356 2.596a34.74 34.74 0 0 1-2.922 5.094 33.944 33.944 0 0 1-5.883.006q-.812-1.164-1.579-2.478-.743-1.282-1.356-2.596Zm11.649 3.3c.3-.522.58-1.05.848-1.572.352.874.652 1.748.9 2.596a29.26 29.26 0 0 1-2.687.522c.32-.502.639-1.017.94-1.546Zm-.006-6.66c-.3-.521-.62-1.03-.94-1.526.926.137 1.82.307 2.675.516a29.392 29.392 0 0 1-.881 2.576 30.904 30.904 0 0 0-.854-1.565Zm-3.98-3.28A40.42 40.42 0 0 0 16 9.337c-.613 0-1.22.013-1.813.046a25.468 25.468 0 0 1 1.793-2.087 26.878 26.878 0 0 1 1.814 2.087ZM8.722 3.408a1.451 1.451 0 0 1 .75-.17v-.006c1.35 0 3.352 1.076 5.479 3.04a30.796 30.796 0 0 0-2.694 3.254 30.447 30.447 0 0 0-4.148.718 19.7 19.7 0 0 1-.34-1.892c-.306-2.491.072-4.429.953-4.944ZM7.077 19.97a19.829 19.829 0 0 1-1.826-.665c-2.31-.985-3.803-2.277-3.803-3.3s1.494-2.323 3.803-3.301a20.1 20.1 0 0 1 1.806-.659 31.318 31.318 0 0 0 1.468 3.972 30.886 30.886 0 0 0-1.448 3.953Zm2.42 8.832a1.557 1.557 0 0 1-.737-.176c-.887-.51-1.272-2.446-.972-4.938.072-.613.19-1.259.333-1.918a31.607 31.607 0 0 0 4.142.711 31.82 31.82 0 0 0 2.713 3.262C12.85 27.718 10.854 28.8 9.497 28.8Zm6.516-4.09a26.876 26.876 0 0 1-1.813-2.087c.587.026 1.187.045 1.794.045.613 0 1.22-.013 1.813-.045a25.468 25.468 0 0 1-1.794 2.087Zm7.266 3.887a1.452 1.452 0 0 1-.75.17c-1.35 0-3.352-1.076-5.479-3.04a30.807 30.807 0 0 0 2.694-3.254 30.466 30.466 0 0 0 4.148-.718 18.265 18.265 0 0 1 .34 1.898c.306 2.492-.072 4.43-.953 4.944Zm3.464-9.294c-.561.241-1.174.456-1.807.658a31.321 31.321 0 0 0-1.468-3.972 30.886 30.886 0 0 0 1.448-3.953c.646.203 1.26.424 1.833.666 2.31.985 3.803 2.276 3.803 3.3-.007 1.024-1.5 2.322-3.81 3.3Z"/><circle cx="15.993" cy="16.003" r="2.981"/></g></svg>
