<svg xmlns="http://www.w3.org/2000/svg" viewBox="0 0 32 32"><path fill="#c69" d="M0 0h32v32H0z"/><path d="M25.9 7.22c-.72-2.85-5.43-3.78-9.9-2.2a22.4 22.4 0 0 0-7.58 4.36c-2.46 2.3-2.85 4.3-2.69 5.13.57 2.95 4.6 4.88 6.27 6.3v.02c-.49.24-4.07 2.05-4.91 3.9-.89 1.96.14 3.36.82 3.55a5.03 5.03 0 0 0 5.42-2.2 5.51 5.51 0 0 0 .54-4.9 6.44 6.44 0 0 1 2.45-.14c2.8.33 3.36 2.08 3.25 2.82a1.85 1.85 0 0 1-.89 1.26c-.2.12-.26.16-.24.25.03.13.12.13.28.1a2.19 2.19 0 0 0 1.53-1.95c.07-1.72-1.58-3.64-4.5-3.6a7.7 7.7 0 0 0-2.5.35l-.12-.14c-1.8-1.93-5.14-3.29-5-5.87.06-.94.38-3.42 6.4-6.42 4.95-2.46 8.9-1.78 9.58-.28.98 2.14-2.11 6.12-7.24 6.7a3.85 3.85 0 0 1-3.24-.82c-.27-.3-.3-.31-.4-.26-.17.1-.07.36 0 .51a3.04 3.04 0 0 0 1.85 1.46 9.82 9.82 0 0 0 6-.6c3.11-1.2 5.54-4.54 4.83-7.33ZM12.7 21.7a4.1 4.1 0 0 1-.03 2.39l-.1.24q-.04.12-.1.23a4.47 4.47 0 0 1-.73 1.08c-.93 1.01-2.23 1.4-2.79 1.07-.6-.34-.3-1.77.78-2.91a10.83 10.83 0 0 1 2.83-2.02l.14-.08Z" fill="#fff"/></svg>
