<svg xmlns="http://www.w3.org/2000/svg" viewBox="0 0 32 32"><path fill="#3178c6" d="M0 0h32v32H0z"/><path d="M17.56 20.09v3.13a6.49 6.49 0 0 0 1.78.58 11.59 11.59 0 0 0 2.17.2 10 10 0 0 0 2.1-.22 5.13 5.13 0 0 0 1.76-.7 3.6 3.6 0 0 0 1.2-1.3 4.04 4.04 0 0 0 .43-1.96 4.07 4.07 0 0 0-.25-1.5 3.5 3.5 0 0 0-.73-1.13 5.31 5.31 0 0 0-1.13-.9 12.1 12.1 0 0 0-1.5-.75q-.6-.25-1.08-.5a5.52 5.52 0 0 1-.82-.48 2.12 2.12 0 0 1-.52-.53 1.12 1.12 0 0 1-.19-.63 1.06 1.06 0 0 1 .17-.58 1.43 1.43 0 0 1 .46-.45 2.46 2.46 0 0 1 .73-.28 4.2 4.2 0 0 1 .97-.1 6.04 6.04 0 0 1 .82.05 6.37 6.37 0 0 1 .86.18 5.96 5.96 0 0 1 .84.31 4.64 4.64 0 0 1 .76.43v-2.92a7.46 7.46 0 0 0-1.54-.4 12.39 12.39 0 0 0-1.91-.14 8.8 8.8 0 0 0-2.09.24 5.27 5.27 0 0 0-1.73.75 3.72 3.72 0 0 0-1.19 1.3 3.84 3.84 0 0 0-.43 1.88 3.68 3.68 0 0 0 .8 2.38 6.06 6.06 0 0 0 2.41 1.67l1.2.52a6.58 6.58 0 0 1 .94.53 2.5 2.5 0 0 1 .64.6 1.23 1.23 0 0 1 .23.73 1.13 1.13 0 0 1-.15.56 1.3 1.3 0 0 1-.44.45 2.4 2.4 0 0 1-.73.3 4.36 4.36 0 0 1-1.03.1 5.8 5.8 0 0 1-1.99-.35 5.92 5.92 0 0 1-1.82-1.07Zm-5.35-7.77h4.04V9.75H5v2.57h4.02v11.43h3.2Z" fill="#fff" fill-rule="evenodd"/></svg>
