<svg xmlns="http://www.w3.org/2000/svg" viewBox="0 0 32 32"><g fill="#32373c"><path d="M16 .96a14.97 14.97 0 0 1 8.4 2.57 15.09 15.09 0 0 1 5.46 6.62 15.02 15.02 0 0 1-1.39 14.26 15.09 15.09 0 0 1-6.62 5.45A15.02 15.02 0 0 1 7.6 28.47a15.09 15.09 0 0 1-5.45-6.62A15.02 15.02 0 0 1 3.53 7.6a15.09 15.09 0 0 1 6.62-5.45A14.94 14.94 0 0 1 16 .96M16 0a16 16 0 1 0 16 16A16 16 0 0 0 16 0Z"/><path d="M2.67 16a13.33 13.33 0 0 0 7.51 12L3.82 10.57A13.28 13.28 0 0 0 2.67 16ZM25 15.33a7.02 7.02 0 0 0-1.1-3.68 6.24 6.24 0 0 1-1.3-3.13 2.3 2.3 0 0 1 2.23-2.36H25A13.33 13.33 0 0 0 4.86 8.69l.86.01c1.4 0 3.55-.17 3.55-.17a.55.55 0 0 1 .09 1.1s-.73.09-1.53.13l4.86 14.44 2.91-8.75-2.07-5.7c-.72-.03-1.4-.12-1.4-.12a.55.55 0 0 1 .08-1.1s2.2.17 3.51.17c1.4 0 3.56-.17 3.56-.17a.55.55 0 0 1 .08 1.1s-.72.09-1.52.13l4.82 14.33 1.37-4.36a15.37 15.37 0 0 0 .97-4.4Zm-8.77 1.84-4 11.62a13.34 13.34 0 0 0 8.2-.21 1.22 1.22 0 0 1-.1-.19ZM27.7 9.6a10.24 10.24 0 0 1 .09 1.37 12.59 12.59 0 0 1-1.01 4.78L22.7 27.52a13.34 13.34 0 0 0 5-17.92Z"/></g></svg>
