<svg xmlns="http://www.w3.org/2000/svg" viewBox="0 0 36 36"><circle cx="18" cy="18" r="18" fill="#009245"/><circle cx="18" cy="18" r="14" fill="#09af54"/><g fill="#fff"><path d="M17.76 18.02c0 4.22-2.9 6.96-7.36 6.96H5.52V11.02h4.88c4.46 0 7.36 2.76 7.36 7ZM10.3 22.6c2.94 0 4.6-1.68 4.6-4.58 0-2.9-1.66-4.64-4.6-4.64H8.32v9.22ZM25.88 24.98h-6.02V11.02h5.76c2.92 0 4.54 1.52 4.54 3.6a3.22 3.22 0 0 1-2.38 3.2 3.39 3.39 0 0 1 2.7 3.38c0 2.22-1.7 3.78-4.6 3.78Zm-.66-11.7h-2.56v3.5h2.56c1.32 0 2.08-.6 2.08-1.74 0-1.12-.76-1.76-2.08-1.76Zm.2 5.66h-2.76v3.76h2.82c1.36 0 2.16-.66 2.16-1.84 0-1.2-.86-1.92-2.22-1.92Z"/></g></svg>