<svg xmlns="http://www.w3.org/2000/svg" viewBox="0 0 36 48"><path d="M9.105 33.997c-.815-.815-.39-.585-2.355-1.11a6.764 6.764 0 0 1-2.384-1.25L.113 42.066a1.5 1.5 0 0 0 1.446 2.065l4.94-.188 3.397 3.588a1.5 1.5 0 0 0 2.478-.465l4.88-11.964a6.728 6.728 0 0 1-8.149-1.105ZM35.887 42.066l-4.253-10.429a6.749 6.749 0 0 1-2.384 1.25c-1.975.528-1.542.297-2.355 1.11a6.73 6.73 0 0 1-8.15 1.105l4.88 11.964a1.5 1.5 0 0 0 2.478.465l3.398-3.588 4.94.188a1.5 1.5 0 0 0 1.446-2.065Z" fill="#c5004f"/><path d="M24.656 31.875c1.433-1.457 1.597-1.332 3.637-1.888a3.81 3.81 0 0 0 2.669-2.716c.701-2.663.52-2.341 2.433-4.29a3.889 3.889 0 0 0 .976-3.71c-.7-2.66-.7-2.29 0-4.953a3.889 3.889 0 0 0-.976-3.71c-1.914-1.949-1.732-1.628-2.433-4.29a3.81 3.81 0 0 0-2.67-2.716c-2.613-.714-2.298-.527-4.213-2.476A3.73 3.73 0 0 0 20.433.13c-2.613.713-2.248.714-4.866 0a3.728 3.728 0 0 0-3.646.995c-1.913 1.948-1.598 1.762-4.213 2.476A3.81 3.81 0 0 0 5.04 6.319c-.7 2.661-.52 2.34-2.433 4.289a3.887 3.887 0 0 0-.976 3.71c.7 2.659.7 2.288 0 4.952a3.891 3.891 0 0 0 .976 3.711c1.914 1.949 1.732 1.627 2.433 4.29a3.81 3.81 0 0 0 2.67 2.716c2.097.572 2.254.482 3.635 1.888a3.726 3.726 0 0 0 4.663.546 3.72 3.72 0 0 1 3.987 0 3.725 3.725 0 0 0 4.662-.546Z" fill="#ffe746"/><path d="M9.156 16.497A8.846 8.846 0 1 1 18 25.499a8.924 8.924 0 0 1-8.844-9.002Z" fill="#fff"/></svg>
