<svg xmlns="http://www.w3.org/2000/svg" viewBox="0 0 40 50"><path fill="none" stroke="#333" stroke-miterlimit="10" d="M30 28 10 8M10 28 30 8"/><path d="M7.813 35a3.227 3.227 0 0 1 3.218 2.12h-.82a2.43 2.43 0 0 0-2.398-1.51 2.7 2.7 0 0 0-2.699 2.958 2.696 2.696 0 0 0 2.699 2.949 2.442 2.442 0 0 0 2.398-1.49h.82a3.236 3.236 0 0 1-3.218 2.099 3.566 3.566 0 0 1 0-7.126ZM13.624 35.08v6.417h2.509v.57h-3.209V35.08ZM20.395 42.137a3.57 3.57 0 1 1 3.458-3.569 3.407 3.407 0 0 1-3.458 3.569Zm0-.61a2.718 2.718 0 0 0 2.738-2.959 2.746 2.746 0 1 0-5.477 0 2.718 2.718 0 0 0 2.739 2.958ZM27.746 42.137a2.097 2.097 0 0 1-2.359-1.87h.74a1.453 1.453 0 0 0 1.619 1.28c.97 0 1.539-.57 1.539-1.29 0-2.059-3.838-.759-3.838-3.388A1.983 1.983 0 0 1 27.686 35a2.04 2.04 0 0 1 2.249 1.7h-.76a1.43 1.43 0 0 0-1.52-1.1 1.316 1.316 0 0 0-1.498 1.25c0 2.018 3.838.779 3.838 3.378a2.02 2.02 0 0 1-2.25 1.909ZM35.605 35.65h-2.948v2.609h2.648v.579h-2.648v2.648h2.948v.58h-3.647V35.07h3.647Z"/></svg>
