<svg xmlns="http://www.w3.org/2000/svg" viewBox="0 0 450 450"><g fill="none" stroke="#e6eeff" stroke-miterlimit="10"><path d="M15 0v450M35 0v450M55 0v450M75 0v450M95 0v450M115 0v450M135 0v450M155 0v450M175 0v450M195 0v450M215 0v450M235 0v450M255 0v450M275 0v450M295 0v450M315 0v450M335 0v450M355 0v450M375 0v450M395 0v450M415 0v450M435 0v450M35 0v450M0 435h450M0 415h450M0 395h450M0 375h450M0 355h450M0 335h450M0 315h450M0 295h450M0 275h450M0 255h450M0 235h450M0 215h450M0 195h450M0 175h450M0 155h450M0 135h450M0 115h450M0 95h450M0 75h450M0 55h450M0 35h450M0 15h450M0 435h450"/></g><path fill="#f2f7ff" d="M75 58h300v374H75z"/><path fill="#5991ff" d="M75 18h300v40H75z"/><rect width="276" height="38" x="87" y="378" fill="#5991ff" rx="3"/><rect width="160" height="43" x="190" y="74" fill="#fff" rx="3"/><rect width="160" height="43" x="190" y="74" fill="none" stroke="#5991ff" stroke-miterlimit="10" rx="3"/><rect width="32" height="32" x="318" y="128" fill="#fff" rx="3"/><rect width="32" height="32" x="318" y="128" fill="none" stroke="#5991ff" stroke-miterlimit="10" rx="3"/><rect width="64" height="32" x="276" y="171" fill="#fff" rx="3"/><rect width="64" height="32" x="276" y="171" fill="none" stroke="#5991ff" stroke-miterlimit="10" rx="3"/><rect width="128" height="31" x="235" y="214" fill="#fff" rx="3"/><rect width="128" height="31" x="235" y="214" fill="none" stroke="#5991ff" stroke-miterlimit="10" rx="3"/><rect width="128" height="31" x="235" y="254" fill="#fff" rx="3"/><rect width="128" height="31" x="235" y="254" fill="none" stroke="#5991ff" stroke-miterlimit="10" rx="3"/><rect width="47" height="32" x="214" y="128" fill="#fff" rx="3"/><rect width="47" height="32" x="214" y="128" fill="none" stroke="#5991ff" stroke-miterlimit="10" rx="3"/><path fill="#b3ccff" d="M85 86h65v15H85zM85 136h45v15H85zM85 179h45v15H85zM85 222h86v15H85zM85 262h75v15H85zM85 299h25v15H85zM164 299h24v15h-24zM218 299h24v15h-24zM272 299h93v15h-93z"/><path fill="#5991ff" d="M162.5 86a7.5 7.5 0 1 0 7.5 7.5 7.5 7.5 0 0 0-7.5-7.5ZM142.5 136a7.5 7.5 0 1 0 7.5 7.5 7.5 7.5 0 0 0-7.5-7.5ZM142.5 179a7.5 7.5 0 1 0 7.5 7.5 7.5 7.5 0 0 0-7.5-7.5ZM183.5 222a7.5 7.5 0 1 0 7.5 7.5 7.5 7.5 0 0 0-7.5-7.5ZM172.5 262a7.5 7.5 0 1 0 7.5 7.5 7.5 7.5 0 0 0-7.5-7.5ZM122.5 299a7.5 7.5 0 1 0 7.5 7.5 7.5 7.5 0 0 0-7.5-7.5Z"/><g><circle cx="151.5" cy="306.5" r="6.5" fill="none" stroke="#5991ff" stroke-miterlimit="10" stroke-width="2"/><circle cx="151.5" cy="306.5" r="3.5" fill="#5991ff"/></g><circle cx="205.5" cy="306.5" r="6.5" fill="none" stroke="#b3ccff" stroke-miterlimit="10" stroke-width="2"/><circle cx="259.5" cy="306.5" r="6.5" fill="none" stroke="#b3ccff" stroke-miterlimit="10" stroke-width="2"/><g fill="none" stroke="#cdf" stroke-dasharray="3,3" stroke-linecap="round" stroke-linejoin="round"><path d="M83 123h284M83 165.5h284M83 208.5h284M83 249.5h284M83 290h284M83 323h284"/></g><path fill="#80aaff" d="M305 352a15.04 15.04 0 0 1-15 15H160a15.04 15.04 0 0 1-15-15 15.04 15.04 0 0 1 15-15h130a15.04 15.04 0 0 1 15 15Z"/><path fill="#fff" d="m182 349.97-.25.44a.39.39 0 0 1-.47.17 3.45 3.45 0 0 1-1-.58.39.39 0 0 1-.1-.5l.26-.44a2.7 2.7 0 0 1-.5-.85h-.51a.39.39 0 0 1-.38-.33 3.52 3.52 0 0 1 0-1.16.39.39 0 0 1 .38-.32h.52a2.7 2.7 0 0 1 .5-.86l-.26-.44a.38.38 0 0 1 .08-.5 3.5 3.5 0 0 1 1-.58.39.39 0 0 1 .48.17l.25.45a2.78 2.78 0 0 1 1 0l.25-.45a.39.39 0 0 1 .47-.17 3.45 3.45 0 0 1 1 .59.39.39 0 0 1 .1.49l-.26.44a2.7 2.7 0 0 1 .5.86h.51a.39.39 0 0 1 .38.32 3.52 3.52 0 0 1 0 1.16.39.39 0 0 1-.38.33h-.51a2.7 2.7 0 0 1-.5.85l.25.45a.38.38 0 0 1-.08.49 3.5 3.5 0 0 1-1 .58.39.39 0 0 1-.48-.17l-.25-.44a2.78 2.78 0 0 1-1 0Zm-.32-1.84a1.17 1.17 0 0 0 1.65-1.65 1.17 1.17 0 0 0-1.65 1.65Zm-3.6 4.8 1.05.53a.75.75 0 0 1 .32.91 7.38 7.38 0 0 1-1.33 2.06.75.75 0 0 1-.94.16l-.91-.52a5.37 5.37 0 0 1-1.72.99v1.05a.75.75 0 0 1-.61.74 7.03 7.03 0 0 1-2.38 0 .75.75 0 0 1-.62-.74v-1.05a5.43 5.43 0 0 1-1.72-1l-.9.53a.75.75 0 0 1-.95-.16 7.37 7.37 0 0 1-1.32-2.06.75.75 0 0 1 .33-.9l1.04-.53a5.41 5.41 0 0 1 0-1.98l-1.04-.53a.75.75 0 0 1-.33-.9 7.34 7.34 0 0 1 1.32-2.06.75.75 0 0 1 .94-.17l.91.52a5.37 5.37 0 0 1 1.72-.99v-1.05a.74.74 0 0 1 .61-.73 7.13 7.13 0 0 1 2.38 0 .75.75 0 0 1 .62.73v1.05a5.43 5.43 0 0 1 1.72 1l.9-.53a.75.75 0 0 1 .95.16 7.33 7.33 0 0 1 1.32 2.06.75.75 0 0 1-.31.9l-1.06.53a5.43 5.43 0 0 1 0 1.99Zm-3.68.67a2.34 2.34 0 0 0-3.3-3.3 2.34 2.34 0 0 0 3.3 3.3Zm7.6 5.7-.25.45a.39.39 0 0 1-.47.17 3.45 3.45 0 0 1-1-.58.39.39 0 0 1-.1-.49l.26-.45a2.7 2.7 0 0 1-.5-.85h-.51a.39.39 0 0 1-.38-.32 3.52 3.52 0 0 1 0-1.16.39.39 0 0 1 .38-.33h.52a2.7 2.7 0 0 1 .5-.86l-.26-.44a.38.38 0 0 1 .08-.5 3.5 3.5 0 0 1 1-.57.39.39 0 0 1 .48.16l.25.45a2.78 2.78 0 0 1 1 0l.25-.45a.39.39 0 0 1 .47-.16 3.45 3.45 0 0 1 1 .58.39.39 0 0 1 .1.49l-.26.44a2.7 2.7 0 0 1 .5.86h.51a.39.39 0 0 1 .38.32 3.52 3.52 0 0 1 0 1.16.39.39 0 0 1-.38.33h-.51a2.7 2.7 0 0 1-.5.85l.25.45a.38.38 0 0 1-.08.5 3.5 3.5 0 0 1-1 .57.39.39 0 0 1-.48-.17l-.25-.44a2.78 2.78 0 0 1-1 0Zm-.32-1.83a1.17 1.17 0 0 0 1.65-1.65 1.17 1.17 0 0 0-1.65 1.65Z"/></svg>