<svg xmlns="http://www.w3.org/2000/svg" viewBox="0 0 450 450"><path fill="#f2f7ff" d="M55 195h340a10 10 0 0 1 10 10v155H45V205a10 10 0 0 1 10-10Z"/><circle cx="75" cy="65" r="30" fill="#b3ccff"/><path fill="#e6eeff" d="M120 45h210v25H120zM45 120h360v20H45zM45 155h240v20H45z"/><rect width="360" height="220" x="45" y="195" fill="none" stroke="#5991ff" stroke-miterlimit="10" stroke-width="2" rx="10"/><path fill="#e6eeff" d="M120 80h120v15H120zM60 369h240v15H60zM60 392h140v15H60z"/><path fill="none" stroke="#5991ff" stroke-miterlimit="10" stroke-width="2" d="M45 360h360"/><g fill="#5991ff"><path d="M135.73 291.43a10.71 10.71 0 1 1 10.7-10.73 10.51 10.51 0 0 1-10.7 10.73Zm0-3.75c3.77 0 6.38-2.73 6.38-6.98 0-4.26-2.6-6.92-6.38-6.92-3.8 0-6.41 2.66-6.41 6.92 0 4.25 2.6 6.98 6.4 6.98ZM168.94 276.62h-4.83a5.26 5.26 0 0 0-4.91-2.7c-3.75 0-6.36 2.67-6.36 6.84 0 4.25 2.64 6.9 6.54 6.9a5.68 5.68 0 0 0 5.93-4.83h-7.2v-3.21h11.34v3.66a10.22 10.22 0 0 1-10.22 8.15 10.68 10.68 0 0 1-.03-21.37c4.67 0 8.39 2.37 9.74 6.56ZM172.5 270.3h4.2v12.95c0 2.87 1.56 4.37 4.23 4.37 2.7 0 4.25-1.5 4.25-4.37V270.3h4.23v12.92c0 5.51-3.96 8.2-8.54 8.2s-8.36-2.69-8.36-8.2ZM205.6 273.9h-7.95v5.24h7.05v3.33h-7.05V288h7.94v3.42h-12.13v-20.95h12.13ZM209.4 270.51h4.77l6.65 15.55 6.65-15.55h4.74v20.92H228v-13.6l-5.6 13.6h-3.18l-5.63-13.6v13.6h-4.2ZM246.06 291.43a10.71 10.71 0 1 1 10.7-10.73 10.51 10.51 0 0 1-10.7 10.73Zm0-3.75c3.77 0 6.38-2.73 6.38-6.98 0-4.26-2.6-6.92-6.38-6.92-3.8 0-6.42 2.66-6.42 6.92 0 4.25 2.61 6.98 6.42 6.98ZM277.77 270.48v20.95h-4.2l-9.5-14.36v14.36h-4.2v-20.95h4.2l9.5 14.38v-14.38ZM280.47 288.73h2.7v2.7h-2.7zM289.54 280.85a4.57 4.57 0 0 1 4.82 3.62h-2.79a2.01 2.01 0 0 0-2.05-1.42c-1.45 0-2.4 1.09-2.4 3.09s.95 3.07 2.4 3.07a1.96 1.96 0 0 0 2.05-1.4h2.8a4.67 4.67 0 0 1-4.83 3.62 5.3 5.3 0 0 1 0-10.58ZM300.82 291.43a5.29 5.29 0 1 1 5.35-5.3 5.12 5.12 0 0 1-5.35 5.3Zm0-2.26a2.73 2.73 0 0 0 2.69-3.03c0-2.06-1.28-3.04-2.65-3.04-1.37 0-2.6.98-2.6 3.04 0 2.03 1.18 3.03 2.56 3.03ZM322.41 285.77a2.3 2.3 0 1 0-4.57 0v5.66h-2.59v-5.66a2.3 2.3 0 1 0-4.58 0v5.66h-2.6v-10.25h2.6v1.24a3.73 3.73 0 0 1 3.01-1.39 3.92 3.92 0 0 1 3.6 1.96 4.06 4.06 0 0 1 3.52-1.96c2.46 0 4.2 1.56 4.2 4.39v6h-2.59Z"/></g></svg>