<svg xmlns="http://www.w3.org/2000/svg" viewBox="0 0 450 450"><circle cx="225" cy="262.22" r="150.9" fill="none" stroke="#e6eeff" stroke-miterlimit="10" stroke-width="15"/><circle cx="225" cy="111.31" r="94.31" fill="#f2f7ff"/><path fill="none" stroke="#5991ff" stroke-linecap="round" stroke-linejoin="round" stroke-width="3" d="M202.05 125.07c-10.34.67-19.73 4.6-25.06 18.65a3.94 3.94 0 0 1-3.76 2.57c-2.87 0-11.73-7.14-14.25-8.86 0 21.24 9.78 39.9 33.01 39.9 19.57 0 33.01-11.28 33.01-31a22.34 22.34 0 0 0-.25-2.35l-22.7-18.91Zm75.02-79.77a15.75 15.75 0 0 0-10.37 4.24c-52.72 47.09-58.2 48.2-58.2 62.06a23.87 23.87 0 0 0 2.25 9.98l16.46 13.71a23.73 23.73 0 0 0 5.77.78c16.02 0 25.3-11.72 54.46-66.14 1.9-3.7 3.58-7.7 3.58-11.86 0-7.45-6.7-12.77-13.95-12.77Z"/><circle cx="355.69" cy="337.67" r="94.31" fill="#f2f7ff"/><path fill="none" stroke="#5991ff" stroke-linejoin="round" stroke-width="3" d="M413.45 312.91H297.92a8.25 8.25 0 0 1-8.25-8.25v-16.5a8.25 8.25 0 0 1 8.25-8.26h115.53a8.25 8.25 0 0 1 8.26 8.25v16.5a8.25 8.25 0 0 1-8.26 8.26Zm-12.38-22.7a6.19 6.19 0 1 0 6.2 6.2 6.19 6.19 0 0 0-6.2-6.2Zm-16.5 0a6.19 6.19 0 1 0 6.19 6.2 6.19 6.19 0 0 0-6.2-6.2Zm28.88 63.96H297.92a8.25 8.25 0 0 1-8.25-8.25v-16.5a8.25 8.25 0 0 1 8.25-8.26h115.53a8.25 8.25 0 0 1 8.26 8.26v16.5a8.25 8.25 0 0 1-8.26 8.25Zm-12.38-22.7a6.19 6.19 0 1 0 6.2 6.2 6.19 6.19 0 0 0-6.2-6.2Zm-16.5 0a6.19 6.19 0 1 0 6.19 6.2 6.19 6.19 0 0 0-6.2-6.2Zm28.88 63.97H297.92a8.25 8.25 0 0 1-8.25-8.26v-16.5a8.25 8.25 0 0 1 8.25-8.25h115.53a8.25 8.25 0 0 1 8.26 8.25v16.5a8.25 8.25 0 0 1-8.26 8.26Zm-12.38-22.7a6.19 6.19 0 1 0 6.2 6.2 6.19 6.19 0 0 0-6.2-6.2Zm-16.5 0a6.19 6.19 0 1 0 6.19 6.2 6.19 6.19 0 0 0-6.2-6.2Z"/><circle cx="94.31" cy="337.67" r="94.31" fill="#f2f7ff"/><path fill="none" stroke="#5991ff" stroke-linejoin="round" stroke-width="3" d="M147.13 284.85H41.5a13.19 13.19 0 0 0-13.14 13.2l-.07 79.23a13.24 13.24 0 0 0 13.2 13.2h105.64a13.24 13.24 0 0 0 13.2-13.2v-79.22a13.24 13.24 0 0 0-13.2-13.2ZM41.5 317.86h69.32v23.11H41.5Zm0 36.31h69.32v23.11H41.5Zm105.63 23.11h-23.1v-59.42h23.1Z"/></svg>